<svg id="visual" viewBox="0 0 900 450" width="900" height="450" xmlns="http://www.w3.org/2000/svg" xmlns:xlink="http://www.w3.org/1999/xlink" version="1.1"><rect x="0" y="0" width="900" height="450" fill="#161515"></rect><path d="M0 269L21.5 275.2C43 281.3 86 293.7 128.8 298.2C171.7 302.7 214.3 299.3 257.2 298.8C300 298.3 343 300.7 385.8 300.7C428.7 300.7 471.3 298.3 514.2 303.5C557 308.7 600 321.3 642.8 327.3C685.7 333.3 728.3 332.7 771.2 330.5C814 328.3 857 324.7 878.5 322.8L900 321L900 451L878.5 451C857 451 814 451 771.2 451C728.3 451 685.7 451 642.8 451C600 451 557 451 514.2 451C471.3 451 428.7 451 385.8 451C343 451 300 451 257.2 451C214.3 451 171.7 451 128.8 451C86 451 43 451 21.5 451L0 451Z" fill="#1d2022"></path><path d="M0 333L21.5 329.8C43 326.7 86 320.3 128.8 315C171.7 309.7 214.3 305.3 257.2 311C300 316.7 343 332.3 385.8 334.3C428.7 336.3 471.3 324.7 514.2 318C557 311.3 600 309.7 642.8 314C685.7 318.3 728.3 328.7 771.2 333.3C814 338 857 337 878.5 336.5L900 336L900 451L878.5 451C857 451 814 451 771.2 451C728.3 451 685.7 451 642.8 451C600 451 557 451 514.2 451C471.3 451 428.7 451 385.8 451C343 451 300 451 257.2 451C214.3 451 171.7 451 128.8 451C86 451 43 451 21.5 451L0 451Z" fill="#222629"></path><path d="M0 362L21.5 359.3C43 356.7 86 351.3 128.8 352C171.7 352.7 214.3 359.3 257.2 357.7C300 356 343 346 385.8 343.2C428.7 340.3 471.3 344.7 514.2 344C557 343.3 600 337.7 642.8 343.2C685.7 348.7 728.3 365.3 771.2 364.8C814 364.3 857 346.7 878.5 337.8L900 329L900 451L878.5 451C857 451 814 451 771.2 451C728.3 451 685.7 451 642.8 451C600 451 557 451 514.2 451C471.3 451 428.7 451 385.8 451C343 451 300 451 257.2 451C214.3 451 171.7 451 128.8 451C86 451 43 451 21.5 451L0 451Z" fill="#272c30"></path><path d="M0 383L21.5 379.8C43 376.7 86 370.3 128.8 374.2C171.7 378 214.3 392 257.2 394C300 396 343 386 385.8 381.8C428.7 377.7 471.3 379.3 514.2 381C557 382.7 600 384.3 642.8 385.5C685.7 386.7 728.3 387.3 771.2 387.2C814 387 857 386 878.5 385.5L900 385L900 451L878.5 451C857 451 814 451 771.2 451C728.3 451 685.7 451 642.8 451C600 451 557 451 514.2 451C471.3 451 428.7 451 385.8 451C343 451 300 451 257.2 451C214.3 451 171.7 451 128.8 451C86 451 43 451 21.5 451L0 451Z" fill="#2d3237"></path><path d="M0 416L21.5 413.8C43 411.7 86 407.3 128.8 406.7C171.7 406 214.3 409 257.2 411.8C300 414.7 343 417.3 385.8 418.7C428.7 420 471.3 420 514.2 417.3C557 414.7 600 409.3 642.8 407.5C685.7 405.7 728.3 407.3 771.2 406.5C814 405.7 857 402.3 878.5 400.7L900 399L900 451L878.5 451C857 451 814 451 771.2 451C728.3 451 685.7 451 642.8 451C600 451 557 451 514.2 451C471.3 451 428.7 451 385.8 451C343 451 300 451 257.2 451C214.3 451 171.7 451 128.8 451C86 451 43 451 21.5 451L0 451Z" fill="#33383f"></path></svg>