<svg id="visual" viewBox="0 0 960 540" width="960" height="540" xmlns="http://www.w3.org/2000/svg" xmlns:xlink="http://www.w3.org/1999/xlink" version="1.1"><rect x="0" y="0" width="960" height="540" fill="#1d2022"></rect><path d="M0 272L22.8 266.8C45.7 261.7 91.3 251.3 137 246.8C182.7 242.3 228.3 243.7 274 248.8C319.7 254 365.3 263 411.2 278.8C457 294.7 503 317.3 548.8 310.2C594.7 303 640.3 266 686 259.2C731.7 252.3 777.3 275.7 823 294.3C868.7 313 914.3 327 937.2 334L960 341L960 541L937.2 541C914.3 541 868.7 541 823 541C777.3 541 731.7 541 686 541C640.3 541 594.7 541 548.8 541C503 541 457 541 411.2 541C365.3 541 319.7 541 274 541C228.3 541 182.7 541 137 541C91.3 541 45.7 541 22.8 541L0 541Z" fill="#272b30"></path><path d="M0 362L22.8 361.2C45.7 360.3 91.3 358.7 137 361.7C182.7 364.7 228.3 372.3 274 380.2C319.7 388 365.3 396 411.2 388.8C457 381.7 503 359.3 548.8 357.7C594.7 356 640.3 375 686 372.3C731.7 369.7 777.3 345.3 823 335.7C868.7 326 914.3 331 937.2 333.5L960 336L960 541L937.2 541C914.3 541 868.7 541 823 541C777.3 541 731.7 541 686 541C640.3 541 594.7 541 548.8 541C503 541 457 541 411.2 541C365.3 541 319.7 541 274 541C228.3 541 182.7 541 137 541C91.3 541 45.7 541 22.8 541L0 541Z" fill="#202327"></path><path d="M0 412L22.8 418.8C45.7 425.7 91.3 439.3 137 443.3C182.7 447.3 228.3 441.7 274 427C319.7 412.3 365.3 388.7 411.2 380.8C457 373 503 381 548.8 390.2C594.7 399.3 640.3 409.7 686 410C731.7 410.3 777.3 400.7 823 397.3C868.7 394 914.3 397 937.2 398.5L960 400L960 541L937.2 541C914.3 541 868.7 541 823 541C777.3 541 731.7 541 686 541C640.3 541 594.7 541 548.8 541C503 541 457 541 411.2 541C365.3 541 319.7 541 274 541C228.3 541 182.7 541 137 541C91.3 541 45.7 541 22.8 541L0 541Z" fill="#191b1e"></path><path d="M0 450L22.8 451.7C45.7 453.3 91.3 456.7 137 456C182.7 455.3 228.3 450.7 274 445C319.7 439.3 365.3 432.7 411.2 434.3C457 436 503 446 548.8 446.5C594.7 447 640.3 438 686 445.5C731.7 453 777.3 477 823 485.7C868.7 494.3 914.3 487.7 937.2 484.3L960 481L960 541L937.2 541C914.3 541 868.7 541 823 541C777.3 541 731.7 541 686 541C640.3 541 594.7 541 548.8 541C503 541 457 541 411.2 541C365.3 541 319.7 541 274 541C228.3 541 182.7 541 137 541C91.3 541 45.7 541 22.8 541L0 541Z" fill="#111315"></path></svg>