<svg id="visual" viewBox="1 0 960 540" width="960" height="540" xmlns="http://www.w3.org/2000/svg" xmlns:xlink="http://www.w3.org/1999/xlink" version="1.1"><rect x="0" y="0" width="960" height="540" fill="#1d2022"></rect><path d="M0 277L22.8 276.3C45.7 275.7 91.3 274.3 137 285.8C182.7 297.3 228.3 321.7 274 318.7C319.7 315.7 365.3 285.3 411.2 268.5C457 251.7 503 248.3 548.8 263.2C594.7 278 640.3 311 686 320.5C731.7 330 777.3 316 823 302C868.7 288 914.3 274 937.2 267L960 260L960 541L937.2 541C914.3 541 868.7 541 823 541C777.3 541 731.7 541 686 541C640.3 541 594.7 541 548.8 541C503 541 457 541 411.2 541C365.3 541 319.7 541 274 541C228.3 541 182.7 541 137 541C91.3 541 45.7 541 22.8 541L0 541Z" fill="#272b30"></path><path d="M0 364L22.8 362.2C45.7 360.3 91.3 356.7 137 348C182.7 339.3 228.3 325.7 274 323.7C319.7 321.7 365.3 331.3 411.2 339.2C457 347 503 353 548.8 359.5C594.7 366 640.3 373 686 375.5C731.7 378 777.3 376 823 376.3C868.7 376.7 914.3 379.3 937.2 380.7L960 382L960 541L937.2 541C914.3 541 868.7 541 823 541C777.3 541 731.7 541 686 541C640.3 541 594.7 541 548.8 541C503 541 457 541 411.2 541C365.3 541 319.7 541 274 541C228.3 541 182.7 541 137 541C91.3 541 45.7 541 22.8 541L0 541Z" fill="#202327"></path><path d="M0 422L22.8 416.2C45.7 410.3 91.3 398.7 137 396.8C182.7 395 228.3 403 274 398.5C319.7 394 365.3 377 411.2 383.8C457 390.7 503 421.3 548.8 435.8C594.7 450.3 640.3 448.7 686 446.8C731.7 445 777.3 443 823 435C868.7 427 914.3 413 937.2 406L960 399L960 541L937.2 541C914.3 541 868.7 541 823 541C777.3 541 731.7 541 686 541C640.3 541 594.7 541 548.8 541C503 541 457 541 411.2 541C365.3 541 319.7 541 274 541C228.3 541 182.7 541 137 541C91.3 541 45.7 541 22.8 541L0 541Z" fill="#191b1e"></path><path d="M0 431L22.8 439.5C45.7 448 91.3 465 137 464.3C182.7 463.7 228.3 445.3 274 445.8C319.7 446.3 365.3 465.7 411.2 469C457 472.3 503 459.7 548.8 461.2C594.7 462.7 640.3 478.3 686 485.7C731.7 493 777.3 492 823 480.8C868.7 469.7 914.3 448.3 937.2 437.7L960 427L960 541L937.2 541C914.3 541 868.7 541 823 541C777.3 541 731.7 541 686 541C640.3 541 594.7 541 548.8 541C503 541 457 541 411.2 541C365.3 54i4 319.7 541 274 541C228.3 541 182.7 541 137 541C91.3 541 45.7 541 22.8 541L0 541Z" fill="#111315"></path></svg>