<svg id="visual" viewBox="0 0 900 450" width="900" height="450" xmlns="http://www.w3.org/2000/svg" xmlns:xlink="http://www.w3.org/1999/xlink" version="1.1"><rect x="0" y="0" width="900" height="450" fill="#161515"></rect><path d="M0 289L21.5 284.5C43 280 86 271 128.8 275.5C171.7 280 214.3 298 257.2 301.8C300 305.7 343 295.3 385.8 295.7C428.7 296 471.3 307 514.2 310.2C557 313.3 600 308.7 642.8 307.3C685.7 306 728.3 308 771.2 302.5C814 297 857 284 878.5 277.5L900 271L900 451L878.5 451C857 451 814 451 771.2 451C728.3 451 685.7 451 642.8 451C600 451 557 451 514.2 451C471.3 451 428.7 451 385.8 451C343 451 300 451 257.2 451C214.3 451 171.7 451 128.8 451C86 451 43 451 21.5 451L0 451Z" fill="#1d2022"></path><path d="M0 308L21.5 306.5C43 305 86 302 128.8 300.8C171.7 299.7 214.3 300.3 257.2 303.3C300 306.3 343 311.7 385.8 317.3C428.7 323 471.3 329 514.2 325.5C557 322 600 309 642.8 309.5C685.7 310 728.3 324 771.2 332.3C814 340.7 857 343.3 878.5 344.7L900 346L900 451L878.5 451C857 451 814 451 771.2 451C728.3 451 685.7 451 642.8 451C600 451 557 451 514.2 451C471.3 451 428.7 451 385.8 451C343 451 300 451 257.2 451C214.3 451 171.7 451 128.8 451C86 451 43 451 21.5 451L0 451Z" fill="#222629"></path><path d="M0 377L21.5 369.2C43 361.3 86 345.7 128.8 337.5C171.7 329.3 214.3 328.7 257.2 334C300 339.3 343 350.7 385.8 357.8C428.7 365 471.3 368 514.2 369.7C557 371.3 600 371.7 642.8 365C685.7 358.3 728.3 344.7 771.2 339.5C814 334.3 857 337.7 878.5 339.3L900 341L900 451L878.5 451C857 451 814 451 771.2 451C728.3 451 685.7 451 642.8 451C600 451 557 451 514.2 451C471.3 451 428.7 451 385.8 451C343 451 300 451 257.2 451C214.3 451 171.7 451 128.8 451C86 451 43 451 21.5 451L0 451Z" fill="#272c30"></path><path d="M0 387L21.5 384.2C43 381.3 86 375.7 128.8 376.8C171.7 378 214.3 386 257.2 387.2C300 388.3 343 382.7 385.8 379.3C428.7 376 471.3 375 514.2 380C557 385 600 396 642.8 397.5C685.7 399 728.3 391 771.2 383.3C814 375.7 857 368.3 878.5 364.7L900 361L900 451L878.5 451C857 451 814 451 771.2 451C728.3 451 685.7 451 642.8 451C600 451 557 451 514.2 451C471.3 451 428.7 451 385.8 451C343 451 300 451 257.2 451C214.3 451 171.7 451 128.8 451C86 451 43 451 21.5 451L0 451Z" fill="#2d3237"></path><path d="M0 423L21.5 418.3C43 413.7 86 404.3 128.8 400C171.7 395.7 214.3 396.3 257.2 400.2C300 404 343 411 385.8 413C428.7 415 471.3 412 514.2 412.3C557 412.7 600 416.3 642.8 418C685.7 419.7 728.3 419.3 771.2 420C814 420.7 857 422.3 878.5 423.2L900 424L900 451L878.5 451C857 451 814 451 771.2 451C728.3 451 685.7 451 642.8 451C600 451 557 451 514.2 451C471.3 451 428.7 451 385.8 451C343 451 300 451 257.2 451C214.3 451 171.7 451 128.8 451C86 451 43 451 21.5 451L0 451Z" fill="#33383f"></path></svg>