<svg id="visual" viewBox="0 0 900 450" width="900" height="450" xmlns="http://www.w3.org/2000/svg" xmlns:xlink="http://www.w3.org/1999/xlink" version="1.1"><rect x="0" y="0" width="900" height="450" fill="#161515"></rect><path d="M0 283L21.5 286.3C43 289.7 86 296.3 128.8 303.7C171.7 311 214.3 319 257.2 313.8C300 308.7 343 290.3 385.8 286.3C428.7 282.3 471.3 292.7 514.2 301.2C557 309.7 600 316.3 642.8 310.8C685.7 305.3 728.3 287.7 771.2 284.5C814 281.3 857 292.7 878.5 298.3L900 304L900 451L878.5 451C857 451 814 451 771.2 451C728.3 451 685.7 451 642.8 451C600 451 557 451 514.2 451C471.3 451 428.7 451 385.8 451C343 451 300 451 257.2 451C214.3 451 171.7 451 128.8 451C86 451 43 451 21.5 451L0 451Z" fill="#1d2022"></path><path d="M0 353L21.5 348.5C43 344 86 335 128.8 327.7C171.7 320.3 214.3 314.7 257.2 318.7C300 322.7 343 336.3 385.8 340.3C428.7 344.3 471.3 338.7 514.2 340.3C557 342 600 351 642.8 349.7C685.7 348.3 728.3 336.7 771.2 334C814 331.3 857 337.7 878.5 340.8L900 344L900 451L878.5 451C857 451 814 451 771.2 451C728.3 451 685.7 451 642.8 451C600 451 557 451 514.2 451C471.3 451 428.7 451 385.8 451C343 451 300 451 257.2 451C214.3 451 171.7 451 128.8 451C86 451 43 451 21.5 451L0 451Z" fill="#222629"></path><path d="M0 376L21.5 374C43 372 86 368 128.8 363C171.7 358 214.3 352 257.2 354.3C300 356.7 343 367.3 385.8 365.5C428.7 363.7 471.3 349.3 514.2 343.2C557 337 600 339 642.8 344.2C685.7 349.3 728.3 357.7 771.2 359C814 360.3 857 354.7 878.5 351.8L900 349L900 451L878.5 451C857 451 814 451 771.2 451C728.3 451 685.7 451 642.8 451C600 451 557 451 514.2 451C471.3 451 428.7 451 385.8 451C343 451 300 451 257.2 451C214.3 451 171.7 451 128.8 451C86 451 43 451 21.5 451L0 451Z" fill="#272c30"></path><path d="M0 401L21.5 399.2C43 397.3 86 393.7 128.8 393.8C171.7 394 214.3 398 257.2 394C300 390 343 378 385.8 375C428.7 372 471.3 378 514.2 381.8C557 385.7 600 387.3 642.8 386.5C685.7 385.7 728.3 382.3 771.2 377.8C814 373.3 857 367.7 878.5 364.8L900 362L900 451L878.5 451C857 451 814 451 771.2 451C728.3 451 685.7 451 642.8 451C600 451 557 451 514.2 451C471.3 451 428.7 451 385.8 451C343 451 300 451 257.2 451C214.3 451 171.7 451 128.8 451C86 451 43 451 21.5 451L0 451Z" fill="#2d3237"></path><path d="M0 398L21.5 398.3C43 398.7 86 399.3 128.8 401.3C171.7 403.3 214.3 406.7 257.2 410.7C300 414.7 343 419.3 385.8 422.3C428.7 425.3 471.3 426.7 514.2 422.7C557 418.7 600 409.3 642.8 403.5C685.7 397.7 728.3 395.3 771.2 395.2C814 395 857 397 878.5 398L900 399L900 451L878.5 451C857 451 814 451 771.2 451C728.3 451 685.7 451 642.8 451C600 451 557 451 514.2 451C471.3 451 428.7 451 385.8 451C343 451 300 451 257.2 451C214.3 451 171.7 451 128.8 451C86 451 43 451 21.5 451L0 451Z" fill="#33383f"></path></svg>