<svg id="visual" viewBox="0 0 960 540" width="960" height="540" xmlns="http://www.w3.org/2000/svg" xmlns:xlink="http://www.w3.org/1999/xlink" version="1.1"><rect x="0" y="0" width="960" height="540" fill="#1d2022"></rect><path d="M0 312L22.8 307.2C45.7 302.3 91.3 292.7 137 293.3C182.7 294 228.3 305 274 302.2C319.7 299.3 365.3 282.7 411.2 277C457 271.3 503 276.7 548.8 272.3C594.7 268 640.3 254 686 261.8C731.7 269.7 777.3 299.3 823 309.2C868.7 319 914.3 309 937.2 304L960 299L960 541L937.2 541C914.3 541 868.7 541 823 541C777.3 541 731.7 541 686 541C640.3 541 594.7 541 548.8 541C503 541 457 541 411.2 541C365.3 541 319.7 541 274 541C228.3 541 182.7 541 137 541C91.3 541 45.7 541 22.8 541L0 541Z" fill="#272b30"></path><path d="M0 393L22.8 392.7C45.7 392.3 91.3 391.7 137 382.2C182.7 372.7 228.3 354.3 274 349.8C319.7 345.3 365.3 354.7 411.2 354C457 353.3 503 342.7 548.8 348.7C594.7 354.7 640.3 377.3 686 372.2C731.7 367 777.3 334 823 325.8C868.7 317.7 914.3 334.3 937.2 342.7L960 351L960 541L937.2 541C914.3 541 868.7 541 823 541C777.3 541 731.7 541 686 541C640.3 541 594.7 541 548.8 541C503 541 457 541 411.2 541C365.3 541 319.7 541 274 541C228.3 541 182.7 541 137 541C91.3 541 45.7 541 22.8 541L0 541Z" fill="#202327"></path><path d="M0 429L22.8 426.2C45.7 423.3 91.3 417.7 137 411.2C182.7 404.7 228.3 397.3 274 403.2C319.7 409 365.3 428 411.2 433.2C457 438.3 503 429.7 548.8 415.7C594.7 401.7 640.3 382.3 686 373.7C731.7 365 777.3 367 823 378C868.7 389 914.3 409 937.2 419L960 429L960 541L937.2 541C914.3 541 868.7 541 823 541C777.3 541 731.7 541 686 541C640.3 541 594.7 541 548.8 541C503 541 457 541 411.2 541C365.3 541 319.7 541 274 541C228.3 541 182.7 541 137 541C91.3 541 45.7 541 22.8 541L0 541Z" fill="#191b1e"></path><path d="M0 459L22.8 462.8C45.7 466.7 91.3 474.3 137 469.5C182.7 464.7 228.3 447.3 274 440.5C319.7 433.7 365.3 437.3 411.2 445.2C457 453 503 465 548.8 465.8C594.7 466.7 640.3 456.3 686 456.3C731.7 456.3 777.3 466.7 823 464.7C868.7 462.7 914.3 448.3 937.2 441.2L960 434L960 541L937.2 541C914.3 541 868.7 541 823 541C777.3 541 731.7 541 686 541C640.3 541 594.7 541 548.8 541C503 541 457 541 411.2 541C365.3 541 319.7 541 274 541C228.3 541 182.7 541 137 541C91.3 541 45.7 541 22.8 541L0 541Z" fill="#111315"></path></svg>