<svg id="visual" viewBox="0 0 960 540" width="960" height="540" xmlns="http://www.w3.org/2000/svg" xmlns:xlink="http://www.w3.org/1999/xlink" version="1.1"><rect x="0" y="0" width="960" height="540" fill="#1d2022"></rect><path d="M0 265L22.8 280.2C45.7 295.3 91.3 325.7 137 340.3C182.7 355 228.3 354 274 334.8C319.7 315.7 365.3 278.3 411.2 276.3C457 274.3 503 307.7 548.8 324.8C594.7 342 640.3 343 686 344.8C731.7 346.7 777.3 349.3 823 340.3C868.7 331.3 914.3 310.7 937.2 300.3L960 290L960 541L937.2 541C914.3 541 868.7 541 823 541C777.3 541 731.7 541 686 541C640.3 541 594.7 541 548.8 541C503 541 457 541 411.2 541C365.3 541 319.7 541 274 541C228.3 541 182.7 541 137 541C91.3 541 45.7 541 22.8 541L0 541Z" fill="#272b30"></path><path d="M0 302L22.8 303.2C45.7 304.3 91.3 306.7 137 315.5C182.7 324.3 228.3 339.7 274 340.5C319.7 341.3 365.3 327.7 411.2 325.5C457 323.3 503 332.7 548.8 337.5C594.7 342.3 640.3 342.7 686 339.7C731.7 336.7 777.3 330.3 823 334.7C868.7 339 914.3 354 937.2 361.5L960 369L960 541L937.2 541C914.3 541 868.7 541 823 541C777.3 541 731.7 541 686 541C640.3 541 594.7 541 548.8 541C503 541 457 541 411.2 541C365.3 541 319.7 541 274 541C228.3 541 182.7 541 137 541C91.3 541 45.7 541 22.8 541L0 541Z" fill="#202327"></path><path d="M0 370L22.8 381.2C45.7 392.3 91.3 414.7 137 415.8C182.7 417 228.3 397 274 385.7C319.7 374.3 365.3 371.7 411.2 382.5C457 393.3 503 417.7 548.8 420.7C594.7 423.7 640.3 405.3 686 400.8C731.7 396.3 777.3 405.7 823 406.2C868.7 406.7 914.3 398.3 937.2 394.2L960 390L960 541L937.2 541C914.3 541 868.7 541 823 541C777.3 541 731.7 541 686 541C640.3 541 594.7 541 548.8 541C503 541 457 541 411.2 541C365.3 541 319.7 541 274 541C228.3 541 182.7 541 137 541C91.3 541 45.7 541 22.8 541L0 541Z" fill="#191b1e"></path><path d="M0 483L22.8 482.2C45.7 481.3 91.3 479.7 137 477.2C182.7 474.7 228.3 471.3 274 465.8C319.7 460.3 365.3 452.7 411.2 454.2C457 455.7 503 466.3 548.8 464.3C594.7 462.3 640.3 447.7 686 442C731.7 436.3 777.3 439.7 823 441.2C868.7 442.7 914.3 442.3 937.2 442.2L960 442L960 541L937.2 541C914.3 541 868.7 541 823 541C777.3 541 731.7 541 686 541C640.3 541 594.7 541 548.8 541C503 541 457 541 411.2 541C365.3 541 319.7 541 274 541C228.3 541 182.7 541 137 541C91.3 541 45.7 541 22.8 541L0 541Z" fill="#111315"></path></svg>